# xmcd
#
# Track frame offsets:
#	150
#	8070
#	20522
#	34675
#	44816
#	62954
#	73479
#	87835
#	99018
#	114364
#	123608
#	135606
#	148259
#	161633
#	179363
#	193913
#
# Disc length: 2733 seconds
# Revision: 0
# Processed by: cddbd v1.5.2PL0 Copyright (c) Steve Scherf et al.
# Submitted via: dBpowerAMP V12.0
#
DISCID=eb0aab10
DTITLE=Rob Ryan Roadshow - Let's Get This Show on the Road
DYEAR=2010
DGENRE=Country
TTITLE0=Let's Get This Show On The Road
TTITLE1=Heaven Yes, Hell No
TTITLE2=Goin' Out Drinking
TTITLE3=Nashville
TTITLE4=Your Song
TTITLE5=Halleluja
TTITLE6=You're Still On My Mind
TTITLE7=White Lightning
TTITLE8=Cory
TTITLE9=Bone To Pick
TTITLE10=Pistolero
TTITLE11=Please Don't Talk About Me When I'm Gone
TTITLE12=S.O.L.
TTITLE13=Pick Me Up On Your Way Down
TTITLE14=Mystery
TTITLE15=Hallelujah (Fast Version!)
EXTD=
EXTT0=
EXTT1=
EXTT2=
EXTT3=
EXTT4=
EXTT5=
EXTT6=
EXTT7=
EXTT8=
EXTT9=
EXTT10=
EXTT11=
EXTT12=
EXTT13=
EXTT14=
EXTT15=
PLAYORDER=
